name C:\Users\u0101727\Documents\MyRepositories\paper-ad\predictivesimulations_2d/Results/PredSim_2D/IK_c4.mot
datacolumns 11
datarows 17
range 0.00000000 0.03200000
endheader
time	pelvis_tilt	pelvis_tx	pelvis_ty	hip_flexion_l	hip_flexion_r	knee_angle_l	knee_angle_r	ankle_angle_l	ankle_angle_r	lumbar_extension	
          0.00000000	        -29.43705939	          0.00000000	          0.92477070	         34.03571444	         33.99871330	        -84.68461420	        -84.64961106	         16.81997769	         16.80882760	          2.05402600	
          0.00200000	        -29.47298567	          0.00270329	          0.92469238	         34.05769419	         34.02150726	        -84.67144736	        -84.63860731	         16.79965550	         16.79696071	          2.11202182	
          0.00400000	        -29.51125523	          0.00544275	          0.92461640	         34.07246666	         34.03713496	        -84.65686418	        -84.62627647	         16.78185436	         16.78659190	          2.18147671	
          0.00600000	        -29.55177144	          0.00821896	          0.92454469	         34.07981364	         34.04533742	        -84.64080708	        -84.61254520	         16.76552911	         16.77733997	          2.26239067	
          0.00800000	        -29.59472792	          0.01103072	          0.92447727	         34.08030165	         34.04660258	        -84.62351366	        -84.59757444	         16.75103715	         16.76960371	          2.35476370	
          0.01000000	        -29.64070404	          0.01387437	          0.92441660	         34.07559012	         34.04255535	        -84.60572546	        -84.58206888	         16.73816753	         16.76294848	          2.45859577	
          0.01200000	        -29.69059184	          0.01674436	          0.92436515	         34.06815085	         34.03566859	        -84.58821780	        -84.56681293	         16.72473045	         16.75539609	          2.57388681	
          0.01400000	        -29.74538286	          0.01963467	          0.92432400	         34.06064519	         34.02864273	        -84.57142606	        -84.55226387	         16.70654036	         16.74264043	          2.70063306	
          0.01600000	        -29.80293943	          0.02254121	          0.92429405	         34.05212276	         34.02064362	        -84.55566629	        -84.53879308	         16.67945471	         16.72044876	          2.83499877	
          0.01800000	        -29.85716180	          0.02546303	          0.92427613	         34.03684500	         34.00604982	        -84.54113871	        -84.52661930	         16.64259514	         16.68837052	          2.96846252	
          0.02000000	        -29.90283331	          0.02839879	          0.92427100	         34.01001722	         33.98017773	        -84.52802569	        -84.51593264	         16.59642665	         16.64693653	          3.09360746	
          0.02200000	        -29.93855378	          0.03134400	          0.92427899	         33.97141204	         33.94287623	        -84.51657203	        -84.50697522	         16.54124033	         16.59645893	          3.20749980	
          0.02400000	        -29.96521229	          0.03429250	          0.92430040	         33.92345162	         33.89658790	        -84.50686988	        -84.49982288	         16.47773876	         16.53762384	          3.30993320	
          0.02600000	        -29.98375443	          0.03723880	          0.92433499	         33.86840462	         33.84356121	        -84.49869035	        -84.49423465	         16.40664525	         16.47108261	          3.40090761	
          0.02800000	        -29.99500743	          0.04017812	          0.92438189	         33.80825989	         33.78573175	        -84.49180022	        -84.48995609	         16.32869156	         16.39754464	          3.48042299	
          0.03000000	        -29.99971596	          0.04310610	          0.92443984	         33.74481631	         33.72483069	        -84.48605258	        -84.48681812	         16.24526215	         16.31843909	          3.54847934	
          0.03200000	        -29.99854742	          0.04601885	          0.92450715	         33.67966889	         33.66238836	        -84.48135650	        -84.48471500	         16.15883901	         16.23639950	          3.60507664	
